<svg xmlns="http://www.w3.org/2000/svg" xmlns:xlink="http://www.w3.org/1999/xlink" width="375" height="375" version="1.0"><defs><clipPath id="prefix__a"><path d="M225 154h65v47h-65zm0 0"/></clipPath><clipPath id="prefix__b"><path d="M249.293 224.004l-46.668-46.668 44.02-44.02 46.667 46.672zm0 0"/></clipPath><clipPath id="prefix__c"><path d="M249.293 224.004l-46.668-46.668 44.02-44.02 46.667 46.672zm0 0"/></clipPath><clipPath id="prefix__d"><path d="M259.5 183.09l-34.133-.008.004 2.836 34.129.004zm-34.172-25.543l23.957.004v-2.836h-23.96zm.024 7.082l40.464.008V161.8l-40.472-.008zm.039 32.64l.004 2.833 45.77.011.007-2.824zm-.02-4.246l54.82.004-.003-2.832-54.81-.02zm-.031-21.28h52.652l-.004-2.833-52.64-.012zm.023 7.081l63.965.012v-2.832l-63.969-.012zm0 0"/></clipPath><clipPath id="prefix__e"><path d="M108 154h77v122h-77zm0 0"/></clipPath><clipPath id="prefix__f"><path d="M156.11 287.773l-72.657-72.656 80.613-80.61 72.653 72.657zm0 0"/></clipPath><clipPath id="prefix__g"><path d="M156.11 287.773l-72.657-72.656 80.613-80.61 72.653 72.657zm0 0"/></clipPath><clipPath id="prefix__h"><path d="M141.027 187.578a39.23 39.23 0 00-3.746 4.34 39.076 39.076 0 00-6.922 15.61 38.729 38.729 0 00-.703 5.69 38.849 38.849 0 005.488 21.938 38.707 38.707 0 003.297 4.684 38.93 38.93 0 0013.457 10.5 39.04 39.04 0 0010.942 3.312c1.894.282 3.797.422 5.715.418l-.004-2.82c-1.184 0-2.363-.059-3.54-.176a35.31 35.31 0 01-3.507-.52 36.012 36.012 0 01-13.027-5.394 37.22 37.22 0 01-2.848-2.11 36.094 36.094 0 01-2.625-2.382 36.041 36.041 0 01-7.828-11.723 36.11 36.11 0 01-2.051-6.777 35.795 35.795 0 01-.691-7.05 36.495 36.495 0 01.695-7.05c.234-1.162.52-2.31.867-3.443a36.137 36.137 0 012.711-6.547 35.786 35.786 0 011.828-3.039 35.608 35.608 0 012.113-2.851c.75-.915 1.547-1.79 2.383-2.63a36.1 36.1 0 012.63-2.378 34.86 34.86 0 012.847-2.114 35.811 35.811 0 016.25-3.34 36.137 36.137 0 016.781-2.058 36.69 36.69 0 013.508-.523c1.18-.114 2.36-.172 3.543-.172l15.945-.008v-2.82l-15.945.027a38.517 38.517 0 00-7.606.73 38.533 38.533 0 00-7.316 2.211 38.501 38.501 0 00-6.738 3.606 38.895 38.895 0 00-5.903 4.86zm9.996 9.992c-.863.868-1.66 1.79-2.386 2.77a24.603 24.603 0 00-1.953 3.086 24.213 24.213 0 00-1.48 3.336 24.48 24.48 0 00-.977 3.52 24.789 24.789 0 00-.36 7.277c.117 1.214.324 2.414.621 3.597.297 1.184.68 2.34 1.145 3.465a24.858 24.858 0 006.258 8.89 24.98 24.98 0 002.879 2.247 24.923 24.923 0 006.582 3.113c1.168.352 2.355.621 3.562.797 1.207.18 2.422.27 3.64.27l.005-2.825a22.014 22.014 0 01-17.008-8.035 22.092 22.092 0 01-3.316-5.54c-.278-.663-.52-1.339-.727-2.03a21.835 21.835 0 01-.945-6.387c0-.719.035-1.437.105-2.156.074-.715.18-1.43.32-2.137.14-.707.317-1.402.524-2.094.21-.687.453-1.367.73-2.03a21.2 21.2 0 01.922-1.954c.34-.637.711-1.254 1.113-1.852a21.665 21.665 0 012.738-3.336 21.453 21.453 0 013.336-2.734 22.303 22.303 0 013.805-2.035 23.255 23.255 0 012.031-.727 22.011 22.011 0 016.387-.945l15.969-.008-.004-2.82-15.965.004a24.56 24.56 0 00-4.844.469c-1.601.316-3.152.789-4.66 1.41a24.347 24.347 0 00-4.289 2.3 24.391 24.391 0 00-3.758 3.094zm-5.007-5.004a31.997 31.997 0 00-7.473 11.805 31.88 31.88 0 00-1.824 9.176 31.85 31.85 0 004.488 17.945 31.62 31.62 0 005.93 7.23 31.745 31.745 0 0012.145 6.887c1.5.457 3.023.797 4.573 1.028 1.551.23 3.11.347 4.676.347l.024-2.804a29.167 29.167 0 01-5.567-.676 29.221 29.221 0 01-5.336-1.734c-.859-.375-1.699-.79-2.515-1.247a28.88 28.88 0 01-2.387-1.48 30.347 30.347 0 01-2.23-1.707 29.65 29.65 0 01-2.055-1.91 29.653 29.653 0 01-1.86-2.102 29.258 29.258 0 01-4.253-7.242 28.738 28.738 0 01-.93-2.648 28.33 28.33 0 01-.672-2.727 28.826 28.826 0 01-.402-8.387 29.086 29.086 0 012.011-8.156 28.915 28.915 0 012.61-4.969 28.531 28.531 0 013.511-4.375 28.9 28.9 0 012.06-1.914 28.923 28.923 0 017.133-4.438c.858-.374 1.733-.706 2.624-.995a28.7 28.7 0 015.48-1.215c.93-.113 1.864-.184 2.801-.207l15.957-.004-.004-2.824-15.957.004c-2.094-.004-4.168.199-6.222.605a31.657 31.657 0 00-11.497 4.766 31.443 31.443 0 00-4.828 3.98zm-14.993-14.992a52.854 52.854 0 00-3.496 3.863 52.202 52.202 0 00-3.105 4.184 53.287 53.287 0 00-4.906 9.184 53.122 53.122 0 00-1.758 4.906 53.4 53.4 0 00-2.031 10.207 53.827 53.827 0 00-.254 5.203c0 1.742.086 3.477.254 5.207a53.362 53.362 0 002.03 10.207 53.096 53.096 0 003.981 9.617 54.504 54.504 0 002.68 4.47c.965 1.444 2 2.839 3.105 4.183a52.71 52.71 0 003.497 3.86 52.603 52.603 0 008.03 6.62 52.57 52.57 0 0019.137 7.926 52.738 52.738 0 0010.364 1l-.012-2.813a50.127 50.127 0 01-9.809-.965 50.13 50.13 0 01-18.117-7.5 48.519 48.519 0 01-3.96-2.937 50.598 50.598 0 01-3.657-3.309 50.65 50.65 0 01-3.312-3.656 50.25 50.25 0 01-5.473-8.191 50.498 50.498 0 01-4.965-13.887 51.431 51.431 0 01-.723-4.883 50.528 50.528 0 01.004-9.851 50.397 50.397 0 011.926-9.668 51.321 51.321 0 011.664-4.645 50.951 50.951 0 014.648-8.695 51.957 51.957 0 012.942-3.961 50.704 50.704 0 016.973-6.973 51.957 51.957 0 013.96-2.941 50.952 50.952 0 018.696-4.649 51.321 51.321 0 014.644-1.664 51.61 51.61 0 014.786-1.199 51.443 51.443 0 014.882-.726 50.531 50.531 0 014.926-.243l15.942-.015-.004-2.824-15.93.007a52.442 52.442 0 00-10.363 1 52.822 52.822 0 00-27.184 14.563zm24.985 24.985a17.852 17.852 0 00-1.707 1.976c-.52.703-.985 1.438-1.399 2.207-.41.77-.761 1.567-1.058 2.387a18.234 18.234 0 00-.696 2.52 17.686 17.686 0 001.008 10.254 17.67 17.67 0 002.676 4.469c.55.671 1.152 1.304 1.797 1.89a18.093 18.093 0 002.059 1.605c.726.485 1.484.914 2.273 1.29.789.37 1.601.683 2.434.937.835.254 1.687.445 2.55.57.864.129 1.73.195 2.602.195l.004-2.824c-.98 0-1.95-.094-2.91-.285a15.232 15.232 0 01-2.801-.848 15.03 15.03 0 01-2.582-1.379 15.367 15.367 0 01-2.262-1.855 15.367 15.367 0 01-1.855-2.262 14.936 14.936 0 011.863-18.852 15.148 15.148 0 012.262-1.859 15.03 15.03 0 015.382-2.23 14.89 14.89 0 012.915-.285l15.976.015-.008-2.824-15.972.004a17.468 17.468 0 00-6.79 1.344 17.499 17.499 0 00-5.75 3.847zm-19.985-19.985a45.798 45.798 0 00-8.054 10.852 45.873 45.873 0 00-4.559 12.722 45.227 45.227 0 00-.832 6.723 46.069 46.069 0 00.16 6.77 45.893 45.893 0 003.281 13.105 45.838 45.838 0 006.941 11.586 45.866 45.866 0 0010.012 9.07 45.758 45.758 0 005.891 3.336 46.381 46.381 0 006.32 2.434 45.623 45.623 0 006.61 1.476c2.242.332 4.492.497 6.758.497v-2.829a43.396 43.396 0 01-4.211-.238 43.463 43.463 0 01-12.203-3.152 42.978 42.978 0 01-3.801-1.828 42.924 42.924 0 01-3.602-2.188 42.339 42.339 0 01-3.37-2.527 42.888 42.888 0 01-5.926-5.98 43.348 43.348 0 01-6.445-10.828 43.212 43.212 0 01-3.04-12.235 43.293 43.293 0 01-.207-4.211 43.354 43.354 0 01.824-8.383 43.434 43.434 0 012.434-8.062 43.349 43.349 0 019.273-13.973c.993-1 2.028-1.95 3.11-2.848a43.446 43.446 0 016.98-4.719 42.458 42.458 0 013.801-1.828 42.763 42.763 0 018.039-2.504 44.034 44.034 0 014.168-.656 43.25 43.25 0 014.207-.242l15.938-.004-.004-2.824-15.934.004a45.633 45.633 0 00-8.984.87 45.442 45.442 0 00-8.641 2.618A45.554 45.554 0 00143 176.84a45.631 45.631 0 00-6.965 5.742zm-27.62 32.563a60.642 60.642 0 001.152 11.734c.382 1.934.86 3.844 1.433 5.727a59.977 59.977 0 0011.059 20.703 60.04 60.04 0 0018.14 14.883 59.906 59.906 0 0010.895 4.511 61.649 61.649 0 005.727 1.434 60.117 60.117 0 0011.738 1.148v-2.82a57.427 57.427 0 01-11.188-1.098 57.688 57.688 0 01-10.754-3.258 57.47 57.47 0 01-14.434-8.648 57.786 57.786 0 01-4.167-3.777 57.872 57.872 0 01-3.777-4.168 56.51 56.51 0 01-3.348-4.52 57.304 57.304 0 01-2.895-4.824 57.714 57.714 0 01-4.297-10.383c-.542-1.797-1-3.617-1.363-5.457a57.073 57.073 0 01-1.097-11.187 57.086 57.086 0 011.105-11.188c.367-1.844.824-3.66 1.367-5.46a57.741 57.741 0 014.305-10.387 57.303 57.303 0 012.894-4.825 58.373 58.373 0 013.356-4.523 57.08 57.08 0 017.95-7.95 56.422 56.422 0 014.523-3.355 58.003 58.003 0 014.828-2.894 56.999 56.999 0 015.086-2.407 57.817 57.817 0 0110.757-3.27c1.844-.362 3.7-.64 5.567-.823a56.354 56.354 0 015.62-.278l15.923-.007-.004-2.82-15.918.003c-1.973 0-3.938.098-5.899.293a60.159 60.159 0 00-11.566 2.305 59.54 59.54 0 00-5.559 1.988 61.123 61.123 0 00-5.34 2.527 59.244 59.244 0 00-5.062 3.04 59.575 59.575 0 00-9.12 7.484 60.276 60.276 0 00-10.523 14.184 61.015 61.015 0 00-2.525 5.335 60.784 60.784 0 00-1.992 5.563 59.865 59.865 0 00-2.305 11.566 59.457 59.457 0 00-.293 5.899zm0 0"/></clipPath><clipPath id="prefix__i"><path d="M168 87h61v189h-61zm0 0"/></clipPath><clipPath id="prefix__j"><path d="M180.727 287.77l-99.172-99.172L182.848 87.305l99.172 99.172zm0 0"/></clipPath><clipPath id="prefix__k"><path d="M180.727 287.77l-99.172-99.172L182.848 87.305l99.172 99.172zm0 0"/></clipPath><clipPath id="prefix__l"><path d="M168.164 237.113l.004 2.825a24.979 24.979 0 007.195-1.066c.778-.235 1.54-.509 2.29-.821.75-.309 1.484-.656 2.199-1.04.714-.378 1.41-.796 2.085-1.245a25.187 25.187 0 003.75-3.082 24.592 24.592 0 003.083-3.754c.449-.672.867-1.368 1.246-2.082.382-.715.73-1.45 1.039-2.2a24.497 24.497 0 001.766-7.055c.081-.808.12-1.616.12-2.429l-.144-117.91-2.828-2.828.148 120.734a21.995 21.995 0 01-3.695 12.203 22.034 22.034 0 01-6.055 6.055c-.597.398-1.215.766-1.847 1.105a21.94 21.94 0 01-6.07 2.168 21.679 21.679 0 01-4.286.422zm14.879-21.949a14.84 14.84 0 01-1.133 5.703 14.94 14.94 0 01-3.226 4.832 14.872 14.872 0 01-4.832 3.227 14.898 14.898 0 01-5.707 1.133l.003 2.824c.582 0 1.16-.028 1.739-.086a17.11 17.11 0 001.722-.254 17.761 17.761 0 006.387-2.645c.48-.324.945-.668 1.395-1.035.449-.367.879-.758 1.289-1.168.41-.41.797-.84 1.168-1.289.367-.445.71-.914 1.035-1.394.32-.48.617-.98.89-1.492.274-.512.524-1.036.747-1.57a18.504 18.504 0 001.007-3.325c.114-.57.196-1.145.254-1.723.055-.578.086-1.156.086-1.734l-.148-124.992-2.824-2.824zm5.656 20.535a28.84 28.84 0 01-4.39 3.613 28.383 28.383 0 01-5.016 2.684 28.808 28.808 0 01-11.117 2.18V247c1.047 0 2.086-.047 3.125-.148a31.745 31.745 0 006.125-1.215 31.4 31.4 0 008.449-3.989 31.34 31.34 0 004.824-3.957 30.934 30.934 0 002.098-2.312 32.316 32.316 0 003.465-5.191c.492-.918.933-1.86 1.332-2.825.398-.965.75-1.945 1.05-2.945.305-.996.555-2.008.758-3.031.203-1.024.356-2.055.453-3.094.102-1.04.153-2.078.153-3.121l-.14-110.848-2.829-2.824.14 113.668a28.808 28.808 0 01-2.18 11.121 28.903 28.903 0 01-6.3 9.41zm20.004 20.004a56.556 56.556 0 01-8.66 7.133 56.587 56.587 0 01-9.902 5.293 56.627 56.627 0 01-10.75 3.238 56.543 56.543 0 01-11.184 1.067l.004 2.82a59.85 59.85 0 0011.727-1.14 60.024 60.024 0 0011.273-3.407c1.82-.75 3.598-1.59 5.332-2.516a60.712 60.712 0 005.059-3.027 60.996 60.996 0 004.734-3.508 60.722 60.722 0 004.367-3.957 60.722 60.722 0 003.957-4.367 61.751 61.751 0 003.508-4.734 59.666 59.666 0 005.543-10.391 60.024 60.024 0 004.266-17.11c.191-1.96.285-3.921.28-5.89l-.1-82.594-2.825-2.824.106 85.414a56.543 56.543 0 01-1.067 11.184 56.478 56.478 0 01-3.242 10.754 56.673 56.673 0 01-12.426 18.562zm-5.008-5.012a49.807 49.807 0 01-16.265 10.903 49.762 49.762 0 01-9.418 2.844c-3.235.64-6.504.953-9.801.94v2.821a52.465 52.465 0 005.2-.246 53.16 53.16 0 0010.202-2.015 53.33 53.33 0 009.602-3.97 53.003 53.003 0 008.645-5.77 53.442 53.442 0 007.343-7.343 52.653 52.653 0 007.988-13.348 52.994 52.994 0 003.008-9.948c.336-1.707.59-3.422.758-5.153.168-1.726.25-3.46.246-5.199l-.11-89.656-2.835-2.836.125 92.492c.012 3.297-.301 6.566-.938 9.8a49.838 49.838 0 01-2.843 9.427 50.026 50.026 0 01-4.641 8.675 49.807 49.807 0 01-6.258 7.59zm-5.011-5.011c-2 2.007-4.176 3.8-6.532 5.375a42.884 42.884 0 01-7.46 3.984 42.486 42.486 0 01-8.106 2.438c-2.781.543-5.59.808-8.426.796l.031 2.852c1.508.004 3.012-.07 4.508-.215 1.5-.144 2.988-.363 4.465-.656a46.853 46.853 0 004.379-1.09 46.488 46.488 0 004.246-1.516 46.217 46.217 0 007.95-4.242 46.624 46.624 0 003.62-2.683 45.41 45.41 0 003.34-3.028 44.547 44.547 0 003.028-3.34 45.64 45.64 0 005-7.492 46.217 46.217 0 001.925-4.078 46.91 46.91 0 001.516-4.246 46.853 46.853 0 001.09-4.379 45.7 45.7 0 00.871-8.973l-.117-96.714-2.825-2.828.122 99.558a42.614 42.614 0 01-.805 8.422 42.704 42.704 0 01-6.43 15.55 42.556 42.556 0 01-5.37 6.524zm-30.5 5.562l.004 2.82a38.865 38.865 0 007.585-.746c1.25-.25 2.485-.558 3.704-.925a38.851 38.851 0 003.59-1.286 38.975 38.975 0 006.723-3.59 38.574 38.574 0 003.062-2.273 38.088 38.088 0 002.824-2.558 38.777 38.777 0 004.832-5.89 39.544 39.544 0 001.96-3.27 38.02 38.02 0 001.63-3.45 37.813 37.813 0 001.285-3.594c.37-1.218.68-2.449.926-3.699a38.451 38.451 0 00.75-7.59l-.13-103.773-2.827-2.824.144 106.586c0 1.18-.059 2.36-.172 3.535a36.235 36.235 0 01-.52 3.504 35.916 35.916 0 01-.855 3.437 36.252 36.252 0 01-4.523 9.57c-.653.981-1.356 1.93-2.106 2.84-.75.914-1.539 1.79-2.375 2.625a37.718 37.718 0 01-2.62 2.375 36.355 36.355 0 01-5.88 3.926 36.858 36.858 0 01-3.203 1.512c-1.09.45-2.203.848-3.332 1.191-1.133.34-2.277.625-3.437.856-1.157.23-2.325.402-3.5.52-1.18.113-2.36.171-3.54.171zm0 0"/></clipPath><linearGradient x1="-50.397" gradientTransform="rotate(-135 149.928 106.441) scale(.37294 .37202)" xmlns:xlink="http://www.w3.org/1999/xlink" y1="-13.426" x2="370.369" gradientUnits="userSpaceOnUse" y2="498.646" xlink:type="simple" xlink:actuate="onLoad" id="prefix__m" xlink:show="other"><stop stop-color="#FF6E29" offset="0"/><stop stop-color="#FF6E29" offset=".25"/><stop stop-color="#FF6E29" offset=".313"/><stop stop-color="#FF6E29" offset=".328"/><stop stop-color="#FF7029" offset=".332"/><stop stop-color="#FF7129" offset=".336"/><stop stop-color="#FF7129" offset=".34"/><stop stop-color="#FF722A" offset=".344"/><stop stop-color="#FF732A" offset=".348"/><stop stop-color="#FF742A" offset=".352"/><stop stop-color="#FF752A" offset=".355"/><stop stop-color="#FF762A" offset=".359"/><stop stop-color="#FF762A" offset=".363"/><stop stop-color="#FF772A" offset=".367"/><stop stop-color="#FF782A" offset=".371"/><stop stop-color="#FF792A" offset=".375"/><stop stop-color="#FF7A2A" offset=".379"/><stop stop-color="#FF7A2B" offset=".383"/><stop stop-color="#FF7B2B" offset=".387"/><stop stop-color="#FF7C2B" offset=".391"/><stop stop-color="#FF7D2B" offset=".395"/><stop stop-color="#FF7E2B" offset=".398"/><stop stop-color="#FF7F2B" offset=".402"/><stop stop-color="#FF7F2B" offset=".406"/><stop stop-color="#FF802B" offset=".41"/><stop stop-color="#FF812B" offset=".414"/><stop stop-color="#FF822B" offset=".418"/><stop stop-color="#FF832B" offset=".422"/><stop stop-color="#FF842C" offset=".426"/><stop stop-color="#FF842C" offset=".43"/><stop stop-color="#FF852C" offset=".434"/><stop stop-color="#FF862C" offset=".438"/><stop stop-color="#FF872C" offset=".441"/><stop stop-color="#FF882C" offset=".445"/><stop stop-color="#FF892C" offset=".449"/><stop stop-color="#FF892C" offset=".453"/><stop stop-color="#FF8A2C" offset=".457"/><stop stop-color="#FF8B2C" offset=".461"/><stop stop-color="#FF8C2D" offset=".465"/><stop stop-color="#FF8D2D" offset=".469"/><stop stop-color="#FF8E2D" offset=".473"/><stop stop-color="#FF8E2D" offset=".477"/><stop stop-color="#FF8F2D" offset=".48"/><stop stop-color="#FF902D" offset=".484"/><stop stop-color="#FF912D" offset=".488"/><stop stop-color="#FF922D" offset=".492"/><stop stop-color="#FF932D" offset=".496"/><stop stop-color="#FF932D" offset=".5"/><stop stop-color="#FF942D" offset=".504"/><stop stop-color="#FF952E" offset=".508"/><stop stop-color="#FF962E" offset=".512"/><stop stop-color="#FF972E" offset=".516"/><stop stop-color="#FF982E" offset=".52"/><stop stop-color="#FF982E" offset=".523"/><stop stop-color="#FF992E" offset=".527"/><stop stop-color="#FF9A2E" offset=".531"/><stop stop-color="#FF9B2E" offset=".535"/><stop stop-color="#FF9C2E" offset=".539"/><stop stop-color="#FF9C2E" offset=".543"/><stop stop-color="#FF9D2F" offset=".547"/><stop stop-color="#FF9E2F" offset=".551"/><stop stop-color="#FF9F2F" offset=".555"/><stop stop-color="#FFA02F" offset=".559"/><stop stop-color="#FFA12F" offset=".563"/><stop stop-color="#FFA12F" offset=".566"/><stop stop-color="#FFA22F" offset=".57"/><stop stop-color="#FFA32F" offset=".574"/><stop stop-color="#FFA42F" offset=".578"/><stop stop-color="#FFA52F" offset=".582"/><stop stop-color="#FFA62F" offset=".586"/><stop stop-color="#FFA630" offset=".59"/><stop stop-color="#FFA730" offset=".594"/><stop stop-color="#FFA830" offset=".598"/><stop stop-color="#FFA930" offset=".602"/><stop stop-color="#FFAA30" offset=".605"/><stop stop-color="#FFAB30" offset=".609"/><stop stop-color="#FFAB30" offset=".613"/><stop stop-color="#FFAC30" offset=".617"/><stop stop-color="#FFAD30" offset=".621"/><stop stop-color="#FFAE30" offset=".625"/><stop stop-color="#FFAF31" offset=".629"/><stop stop-color="#FFB031" offset=".633"/><stop stop-color="#FFB031" offset=".637"/><stop stop-color="#FFB131" offset=".641"/><stop stop-color="#FFB231" offset=".645"/><stop stop-color="#FFB331" offset=".648"/><stop stop-color="#FFB431" offset=".652"/><stop stop-color="#FFB531" offset=".656"/><stop stop-color="#FFB531" offset=".66"/><stop stop-color="#FFB631" offset=".664"/><stop stop-color="#FFB731" offset=".668"/><stop stop-color="#FFB832" offset=".672"/><stop stop-color="#FFB932" offset=".676"/><stop stop-color="#FFBA32" offset=".68"/><stop stop-color="#FFBA32" offset=".684"/><stop stop-color="#FFBB32" offset=".688"/><stop stop-color="#FFBC32" offset=".691"/><stop stop-color="#FFBD32" offset=".695"/><stop stop-color="#FFBE32" offset=".699"/><stop stop-color="#FFBE32" offset=".703"/><stop stop-color="#FFBF32" offset=".707"/><stop stop-color="#FFC033" offset=".711"/><stop stop-color="#FFC133" offset=".715"/><stop stop-color="#FFC233" offset=".719"/><stop stop-color="#FFC333" offset=".723"/><stop stop-color="#FFC333" offset=".727"/><stop stop-color="#FFC433" offset=".734"/><stop stop-color="#FFC433" offset=".75"/><stop stop-color="#FFC433" offset="1"/></linearGradient></defs><g clip-path="url(#prefix__a)"><g clip-path="url(#prefix__b)"><g clip-path="url(#prefix__c)"><g clip-path="url(#prefix__d)"><path fill="#FFC433" d="M225.316 154.7l.008 45.413 64.016.012-.012-45.41zm0 0"/></g></g></g></g><g clip-path="url(#prefix__e)"><g clip-path="url(#prefix__f)"><g clip-path="url(#prefix__g)"><g clip-path="url(#prefix__h)"><path fill="#FF6E29" d="M108.402 154.95l-.039 120.355 76.18-.024.039-120.36zm0 0"/></g></g></g></g><g clip-path="url(#prefix__i)"><g clip-path="url(#prefix__j)"><g clip-path="url(#prefix__k)"><g clip-path="url(#prefix__l)"><path fill="url(#prefix__m)" d="M198.203 305.313l124.008-124.008L198.203 57.297 74.195 181.305zm0 0"/></g></g></g></g></svg>