<svg xmlns="http://www.w3.org/2000/svg" width="104" height="100" fill="none"><mask id="prefix__a" fill="#fff"><path d="M103.704 68.283c0 1.211 0 2.422-.007 3.635-.006 1.02-.018 2.039-.047 3.058-.06 2.22-.193 4.463-.592 6.658-.405 2.23-1.065 4.306-2.111 6.333a21.285 21.285 0 01-3.96 5.391 21.527 21.527 0 01-5.455 3.917c-2.049 1.032-4.147 1.686-6.403 2.086-2.222.395-4.49.527-6.737.586-4.32.053-5.545.053-6.77.053H32.083c-4.707-.014-5.739-.025-6.77-.053-2.247-.06-4.514-.19-6.737-.586-2.256-.4-4.354-1.054-6.402-2.086a21.496 21.496 0 01-5.455-3.917 21.332 21.332 0 01-3.962-5.39c-1.044-2.028-1.704-4.104-2.11-6.334-.4-2.195-.532-4.438-.592-6.658-.028-1.02-.04-2.039-.046-3.058C0 70.705 0 69.494 0 68.283V31.717c0-1.211 0-2.424.009-3.633.005-1.021.018-2.04.046-3.06.06-2.222.192-4.463.591-6.66.407-2.23 1.067-4.304 2.11-6.331A21.27 21.27 0 016.72 6.642a21.45 21.45 0 015.455-3.917C14.222 1.693 16.32 1.04 18.576.64 20.8.244 23.066.112 25.313.053 29.633 0 30.858 0 32.083 0h38.535L55.699.005 71.622 0c4.706.014 5.737.025 6.77.053 2.248.06 4.515.19 6.737.586 2.256.4 4.354 1.054 6.403 2.086a21.48 21.48 0 015.455 3.917 21.223 21.223 0 013.96 5.39c1.046 2.028 1.706 4.102 2.111 6.332.399 2.197.532 4.438.592 6.66.029 1.02.041 2.039.047 3.06.007 1.21.007 2.422.007 3.633v36.566z"/></mask><path d="M103.704 68.283c0 1.211 0 2.422-.007 3.635-.006 1.02-.018 2.039-.047 3.058-.06 2.22-.193 4.463-.592 6.658-.405 2.23-1.065 4.306-2.111 6.333a21.285 21.285 0 01-3.96 5.391 21.527 21.527 0 01-5.455 3.917c-2.049 1.032-4.147 1.686-6.403 2.086-2.222.395-4.49.527-6.737.586-4.32.053-5.545.053-6.77.053H32.083c-4.707-.014-5.739-.025-6.77-.053-2.247-.06-4.514-.19-6.737-.586-2.256-.4-4.354-1.054-6.402-2.086a21.496 21.496 0 01-5.455-3.917 21.332 21.332 0 01-3.962-5.39c-1.044-2.028-1.704-4.104-2.11-6.334-.4-2.195-.532-4.438-.592-6.658-.028-1.02-.04-2.039-.046-3.058C0 70.705 0 69.494 0 68.283V31.717c0-1.211 0-2.424.009-3.633.005-1.021.018-2.04.046-3.06.06-2.222.192-4.463.591-6.66.407-2.23 1.067-4.304 2.11-6.331A21.27 21.27 0 016.72 6.642a21.45 21.45 0 015.455-3.917C14.222 1.693 16.32 1.04 18.576.64 20.8.244 23.066.112 25.313.053 29.633 0 30.858 0 32.083 0h38.535L55.699.005 71.622 0c4.706.014 5.737.025 6.77.053 2.248.06 4.515.19 6.737.586 2.256.4 4.354 1.054 6.403 2.086a21.48 21.48 0 015.455 3.917 21.223 21.223 0 013.96 5.39c1.046 2.028 1.706 4.102 2.111 6.332.399 2.197.532 4.438.592 6.66.029 1.02.041 2.039.047 3.06.007 1.21.007 2.422.007 3.633v36.566z" fill="#000"/><path d="M103.697 71.918l-7-.041v.004l7 .037zm-.047 3.058l-6.997-.195v.005l6.997.19zm-.592 6.658l-6.887-1.253-.001.003 6.888 1.25zm-2.111 6.333l-6.221-3.209-.003.006 6.224 3.203zm-3.96 5.391l4.921 4.978-4.921-4.978zm-5.455 3.917l-3.146-6.254-.003.002 3.149 6.252zm-6.403 2.086l-1.222-6.892h-.002l1.224 6.892zm-6.737.586l.086 7 .05-.001.05-.001-.186-6.998zM32.084 100l-.02 7h.02v-7zm-6.77-.053l.19-6.997H25.5l-.186 6.997zm-6.737-.586l1.225-6.892h-.002l-1.223 6.892zm-6.402-2.086l3.149-6.252-.006-.003-3.143 6.255zm-5.455-3.917l-4.921 4.978 4.92-4.978zm-3.962-5.39l-6.224 3.204.002.003 6.222-3.208zm-2.11-6.334l-6.888 1.253v.002l6.887-1.255zm-.592-6.658l6.997-.19v-.005l-6.997.195zm-.046-3.058l7-.037v-.015l-7 .052zm0-43.834l7 .052v-.015l-7-.037zm.046-3.06l6.997.195v-.005l-6.997-.19zm.591-6.66L-6.24 17.11l-.001.003 6.887 1.252zm2.11-6.331l-6.222-3.206v.001l6.223 3.205zM6.72 6.642l4.918 4.98.006-.005-4.924-4.975zm5.455-3.917l3.143 6.255.006-.003-3.15-6.252zM18.576.64L19.8 7.53h.002L18.576.639zm6.737-.586l-.085-7h-.05l-.05.002.185 6.998zM70.618 0l.002 7-.002-14v7zM55.699.005l-.002-7 .005 14-.003-7zM71.622 0l.021-7h-.023l.002 7zm6.77.053l-.19 6.997h.005l.186-6.997zm6.737.586L83.905 7.53h.002L85.129.64zm6.403 2.086l-3.15 6.252.004.002 3.146-6.254zm5.455 3.917l-4.924 4.975.005.006 4.919-4.981zm3.96 5.39l-6.225 3.202.004.008 6.221-3.21zm2.111 6.332l-6.888 1.25v.002l6.888-1.252zm.592 6.66l-6.997.19v.005l6.997-.195zm.047 3.06l-7 .037v.004l7-.04zm-6.993 40.2c0 1.214 0 2.404-.007 3.593l13.999.082c.008-1.237.008-2.468.008-3.676h-14zm-.007 3.597a128.6 128.6 0 01-.044 2.9l13.995.39c.03-1.09.043-2.167.049-3.217l-14-.073zm-.044 2.905c-.057 2.1-.179 3.925-.482 5.595l13.774 2.506c.495-2.72.639-5.382.703-7.72l-13.995-.381zm-.483 5.598c-.297 1.64-.757 3.041-1.444 4.374l12.442 6.418c1.404-2.72 2.265-5.47 2.777-8.292l-13.775-2.5zm-1.447 4.38a14.282 14.282 0 01-2.657 3.616l9.842 9.956a28.293 28.293 0 005.263-7.165l-12.448-6.407zm-2.657 3.616a14.522 14.522 0 01-3.68 2.641l6.291 12.507a28.542 28.542 0 007.231-5.192l-9.843-9.956zm-3.683 2.643c-1.366.688-2.802 1.149-4.476 1.446l2.444 13.785c2.839-.504 5.6-1.352 8.33-2.728l-6.298-12.503zm-4.478 1.446c-1.71.304-3.568.424-5.698.48l.371 13.996c2.364-.063 5.04-.206 7.775-.692l-2.448-13.784zm-5.598.479C74.01 93 72.814 93 71.622 93v14c1.258 0 2.512 0 6.856-.053l-.17-14zM71.622 93h-25.47v14h25.47V93zm-25.47 0H32.084v14h14.07V93zm-14.048 0c-4.735-.014-5.672-.025-6.6-.05l-.382 13.995c1.135.031 2.26.041 6.94.055l.042-14zm-6.605-.05c-2.13-.057-3.99-.177-5.698-.48l-2.449 13.783c2.736.486 5.411.629 7.775.692L25.5 92.95zm-5.7-.481c-1.674-.297-3.11-.758-4.476-1.446l-6.298 12.503c2.73 1.376 5.49 2.224 8.33 2.728l2.444-13.785zm-4.482-1.449a14.495 14.495 0 01-3.677-2.64l-9.842 9.956a28.491 28.491 0 007.232 5.193l6.287-12.509zm-3.677-2.64a14.331 14.331 0 01-2.662-3.62l-12.443 6.415a28.332 28.332 0 005.263 7.161l9.842-9.956zm-2.66-3.618c-.688-1.335-1.148-2.74-1.447-4.383l-13.773 2.51c.513 2.818 1.374 5.565 2.773 8.283l12.447-6.41zm-1.447-4.381c-.303-1.667-.423-3.49-.48-5.595l-13.995.38c.063 2.334.206 4.998.701 7.721l13.774-2.506zm-.48-5.6c-.027-.948-.039-1.911-.044-2.9l-14 .073c.005 1.05.018 2.127.049 3.217l13.994-.39zm-.044-2.915A489.685 489.685 0 017 68.283H-7c0 1.207 0 2.443.01 3.686l13.999-.103zM7 68.283V56.226H-7v12.057H7zm0-12.057V43.773H-7v12.453H7zm0-12.453V31.718H-7v12.056H7zm0-12.056c0-1.215 0-2.402.009-3.581l-14-.103C-7 29.272-7 30.51-7 31.717H7zm.009-3.596c.005-.991.017-1.954.043-2.902l-13.994-.39c-.03 1.09-.044 2.167-.049 3.219l14 .073zm.043-2.907c.058-2.107.178-3.928.481-5.598L-6.24 17.112c-.495 2.725-.638 5.385-.701 7.722l13.994.38zm.48-5.595c.3-1.642.76-3.045 1.448-4.381l-12.447-6.41c-1.399 2.718-2.26 5.463-2.773 8.281l13.773 2.51zm1.448-4.38a14.27 14.27 0 012.657-3.616L1.8 1.66a28.27 28.27 0 00-5.266 7.166L8.98 15.238zm2.663-3.622a14.448 14.448 0 013.674-2.637L9.03-3.53a28.45 28.45 0 00-7.235 5.197l9.848 9.95zm3.68-2.64c1.366-.688 2.802-1.149 4.476-1.446L17.354-6.254c-2.838.504-5.599 1.352-8.33 2.728l6.299 12.503zM19.8 7.53c1.709-.304 3.567-.424 5.698-.48l-.372-13.996c-2.364.063-5.039.206-7.775.692L19.801 7.53zm5.597-.479C29.695 7 30.891 7 32.083 7V-7c-1.257 0-2.511 0-6.855.053l.17 14zM32.083 7h14.07V-7h-14.07V7zm14.07 0h24.465V-7H46.153V7zM70.615-7l-14.918.005.005 14L70.62 7l-.005-14zM55.702 7.005L71.625 7 71.62-7l-15.923.005.005 14zM71.602 7c4.733.014 5.67.025 6.6.05l.38-13.995c-1.135-.03-2.26-.041-6.939-.055l-.042 14zm6.605.05c2.13.057 3.989.177 5.698.48l2.448-13.783c-2.735-.486-5.41-.63-7.775-.692L78.207 7.05zm5.7.481c1.674.297 3.11.758 4.476 1.446L94.68-3.526c-2.73-1.376-5.491-2.224-8.33-2.728L83.907 7.531zm4.48 1.448a14.481 14.481 0 013.676 2.638l9.848-9.95a28.49 28.49 0 00-7.234-5.195l-6.29 12.507zm3.681 2.644a14.22 14.22 0 012.654 3.611l12.45-6.402a28.21 28.21 0 00-5.267-7.17l-9.837 9.96zm2.658 3.619c.688 1.334 1.147 2.734 1.444 4.372l13.775-2.5c-.512-2.822-1.374-5.57-2.777-8.29l-12.442 6.418zm1.444 4.374c.304 1.672.426 3.496.483 5.598l13.995-.38c-.064-2.341-.209-5-.703-7.722L96.17 19.616zm.483 5.603c.027.948.038 1.91.044 2.902l14-.073a147.572 147.572 0 00-.049-3.22l-13.995.39zm.044 2.906c.007 1.185.007 2.377.007 3.592h14c0-1.208 0-2.44-.008-3.674l-14 .082zm.007 3.592v12.056h14V31.718h-14zm0 12.056v12.453h14V43.773h-14zm0 12.453v12.057h14V56.226h-14z" fill="url(#prefix__paint0_linear)" mask="url(#prefix__a)"/><path fill-rule="evenodd" clip-rule="evenodd" d="M40.794 42.723a.5.5 0 01.5-.5h16.02a.5.5 0 01.5.5v2.328a.5.5 0 01-.5.5h-16.02a.5.5 0 01-.5-.5v-2.328zM35.287 33.458a.3.3 0 00-.06-.488l-6.377-3.387a.3.3 0 01-.138-.377l4.486-11.17c.119-.295-.244-.547-.48-.333L18.981 30.135a.3.3 0 00.033.47l6.07 4.124a.3.3 0 01.11.358l-4.108 10.456c-.116.295.245.545.48.332l13.721-12.417z" fill="#fff"/><defs><linearGradient id="prefix__paint0_linear" x1="53.704" y1="0" x2="53.704" y2="105.556" gradientUnits="userSpaceOnUse"><stop stop-color="#F743B6"/><stop offset="1" stop-color="#FCC043"/></linearGradient></defs></svg>