<svg xmlns="http://www.w3.org/2000/svg" height="700" width="1012"><path d="M904.39 397.085c-1.855 7.88-5.858 14.863-12.693 19.252-10.74 6.883-23.822 4.888-33.098-3.491-8.69-7.78-11.618-20.948-8.884-32.32 2.831-11.87 11.813-22.344 23.334-25.635 25.678-7.282 36.32 21.246 31.34 42.194zm-15.72-80.997c-15.914-6.484-10.446-91.77 4.101-195.311 4.1-28.928 11.13-42.594 19.039-49.576 11.325-9.876 31.926-10.275 45.888-8.18 16.012 2.394 31.34 9.975 42.958 21.446 10.252 10.175 11.424 20.549 7.909 34.015-5.76 21.447-15.622 41.995-25.092 62.045-2.246 4.888-21.87 42.893-24.506 47.58-47.353 85.188-56.823 93.467-70.296 87.98z" fill="#6cc7d2"/><path d="M567.456 277.684c9.372 40.898 8.396 85.785.39 118.104-7.518 30.524-27.923 57.856-60.337 67.033-28.412 8.08-61.51 2.194-81.818-17.756-33.39-32.718-52.917-109.526-44.228-165.286 7.03-44.788 30.657-102.145 82.5-104.639 3.32-.199 6.64-.1 9.96.2 52.82 4.888 81.621 50.374 93.533 102.344zM471.97 370.75c2.929.499 5.858.499 8.787-.399 9.86-2.893 15.524-13.367 18.16-23.541 4.003-15.461 3.417-32.12-1.758-47.282-2.636-7.68-6.541-15.162-12.497-20.748-20.991-19.65-41.982.798-45.595 24.04-2.831 18.155 1.27 39.202 12.4 53.865 5.174 6.783 12.595 12.668 20.503 14.065z" fill="#bbb5b3"/><path d="M681.785 364.367c-.098 75.511 7.322 133.266-25.19 140.15-26.36 5.485-25.482-18.155-27.532-38.006-7.811-76.907-14.938-204.687-17.965-281.994 2.148-33.217 23.92-53.566 46.571-58.553 34.953-7.681 72.25-5.487 103.199 14.064 61.216 38.704 66.098 109.726 28.997 167.68-20.308 31.622-81.72 54.564-108.08 52.57zm7.81-169.276c-3.807.598-10.056 2.394-11.813 6.184-4.199 8.878-3.906 65.237 3.417 88.878 1.172 3.89 3.808 7.58 7.615 8.977 13.864 5.187 26.361-12.17 32.024-22.643 7.909-14.564 10.447-31.72 5.468-47.68-4.687-14.864-19.234-36.41-36.71-33.716z" fill="#99918d"/><path d="M331.67 232.597c-22.944 49.576-61.02 88.977-113.743 108.428 15.133 40.4 30.56 80.3 45.595 120.599 8.396 21.745 16.402 45.585 9.08 67.032-7.616 21.945-37.296 28.03-58.873 4.688-41.495-45.087-181.794-330.772-192.143-352.218C12.799 162.672-.382 142.92.008 121.575c.684-32.12 49.306-64.639 72.64-81.297 32.61-23.242 70.296-39.102 110.619-39.202 31.438 0 58.287 8.778 82.11 24.34 36.515 23.94 61.9 62.144 71.273 105.336 8.2 38.004 6.443 76.907-4.98 101.845m-106.909-54.264c-8.2-30.424-26.751-58.454-50.086-78.105-5.077-4.29-10.544-8.28-16.89-10.474-43.74-14.663-24.8 60.05-17.672 78.903 9.86 26.434 24.799 59.85 44.814 79.8 4.393 4.389 9.568 8.28 15.524 9.476 9.08 1.896 17.476-4.588 22.065-12.17 3.807-6.284 5.272-13.765 6.15-21.047 1.66-15.46.196-31.221-3.905-46.383z" fill="#48b9c7"/><path d="M854.729 612.318c-.196 43.79-26.362 87.58-84.063 87.58-57.702 0-84.55-43.091-84.55-87.081 0-54.863 37.393-88.778 85.722-88.778 56.041.499 83.379 42.992 82.89 88.279zm-82.891-60.648c-36.223 0-56.53 25.735-56.726 60.847 0 30.524 16.696 59.152 56.042 59.152 39.346 0 54.382-31.022 54.382-59.45.488-29.527-14.84-59.851-53.698-60.55zm107.104 125.785c0 6.484.195-30.823 0-36.509h26.556l1.855 22.843c8.69 5.087 22.163 8.878 33.196 8.878 20.503 0 41.884-5.287 41.884-25.736-.683-18.553-24.506-22.344-43.74-24.339-32.707-3.391-59.068-11.57-59.068-49.077 0-33.416 37.003-50.075 64.536-50.075 22.163-.498 37.882 3.093 57.897 19.452 0 13.466-.196 21.446-.196 34.912h-25.677l-1.66-22.144c-10.35-5.088-20.991-6.484-29.192-6.285-17.672.2-36.515 8.679-36.515 23.84 0 14.864 12.204 18.953 33.879 22.145 35.343 4.788 69.417 12.968 69.417 51.472-.195 42.094-38.858 53.166-72.054 53.166-25.287.1-41.103-4.688-61.118-22.543z" fill="#554741"/><path d="M650.284 685.535c0 7.68-6.054 13.865-13.572 13.865H479.815c-7.518 0-13.571-6.185-13.571-13.865v-1.197c0-7.681 6.053-13.866 13.571-13.866h156.897c7.518 0 13.572 6.185 13.572 13.866z" fill="#faa41a"/></svg>