<svg viewBox="0 0 300 300" xmlns="http://www.w3.org/2000/svg"><g transform="translate(10 10)" fill="none" fill-rule="evenodd"><circle stroke="#924E96" stroke-width="20" cx="140" cy="140" r="140"/><path d="M76.696 158.994h41.329l-8.534 80.664c-.037.244-.047.964-.047 1.207 0 6.447 5.25 11.696 11.696 11.696 3.668 0 7.168-1.759 9.488-4.874l81.74-116.763a11.777 11.777 0 002.34-7.018c0-6.446-5.25-11.695-11.696-11.695h-50.583l8.421-71.14a22.51 22.51 0 00.047-1.375c.01-6.447-5.24-11.696-11.686-11.696-3.668 0-7.168 1.76-9.563 4.968L67.339 140.281A11.777 11.777 0 0065 147.298c0 6.447 5.25 11.696 11.696 11.696z" fill="#924E96" fill-rule="nonzero"/></g></svg>